<mxfile host="app.diagrams.net" agent="Mozilla/5.0 (Windows NT 10.0; Win64; x64) AppleWebKit/537.36 (KHTML, like Gecko) Chrome/138.0.0.0 Safari/537.36 Edg/138.0.0.0" version="28.0.7">
  <diagram name="AWS Architecture" id="sp208SELGDMd-raIoyPY">
    <mxGraphModel dx="1953" dy="1205" grid="0" gridSize="10" guides="1" tooltips="1" connect="1" arrows="1" fold="1" page="1" pageScale="1" pageWidth="827" pageHeight="1169" math="0" shadow="0">
      <root>
        <mxCell id="0" />
        <mxCell id="1" parent="0" />
        <mxCell id="33ecqLk9YDmXbCicqXYl-34" value="AWS Cloud" style="text;html=1;strokeColor=none;fillColor=none;align=left;verticalAlign=top;whiteSpace=wrap;rounded=0;fontSize=12;fontStyle=1" vertex="1" parent="1">
          <mxGeometry x="40" y="90" width="100" height="30" as="geometry" />
        </mxCell>
        <mxCell id="33ecqLk9YDmXbCicqXYl-35" value="" style="rounded=0;whiteSpace=wrap;html=1;dashed=0;strokeColor=#232F3E;strokeWidth=2;fillColor=none;" vertex="1" parent="1">
          <mxGeometry x="30" y="80" width="1140" height="880" as="geometry" />
        </mxCell>
        <mxCell id="33ecqLk9YDmXbCicqXYl-36" value="Region(Tokyo)" style="text;html=1;strokeColor=none;fillColor=none;align=left;verticalAlign=top;whiteSpace=wrap;rounded=0;fontSize=12;fontStyle=0;image=img/lib/aws4/general/Regions_dark-bg.svg;imageWidth=20;imageHeight=20;" vertex="1" parent="1">
          <mxGeometry x="75" y="265" width="120" height="30" as="geometry" />
        </mxCell>
        <mxCell id="33ecqLk9YDmXbCicqXYl-37" value="" style="rounded=0;whiteSpace=wrap;html=1;dashed=1;strokeColor=#007700;strokeWidth=1;fillColor=none;" vertex="1" parent="1">
          <mxGeometry x="60" y="255" width="1080" height="680" as="geometry" />
        </mxCell>
        <mxCell id="33ecqLk9YDmXbCicqXYl-38" value="VPC" style="text;html=1;strokeColor=none;fillColor=none;align=left;verticalAlign=top;whiteSpace=wrap;rounded=0;fontSize=12;fontStyle=0;image=img/lib/aws4/resource-icons/vpc.svg;imageWidth=20;imageHeight=20;" vertex="1" parent="1">
          <mxGeometry x="95" y="365" width="60" height="30" as="geometry" />
        </mxCell>
        <mxCell id="33ecqLk9YDmXbCicqXYl-39" value="" style="rounded=0;whiteSpace=wrap;html=1;dashed=0;strokeColor=#2E73B8;strokeWidth=2;fillColor=none;" vertex="1" parent="1">
          <mxGeometry x="80" y="355" width="1040" height="560" as="geometry" />
        </mxCell>
        <mxCell id="33ecqLk9YDmXbCicqXYl-40" value="Availability Zone 1a" style="text;html=1;strokeColor=none;fillColor=none;align=center;verticalAlign=middle;whiteSpace=wrap;rounded=0;fontSize=12;" vertex="1" parent="1">
          <mxGeometry x="100" y="300" width="490" height="30" as="geometry" />
        </mxCell>
        <mxCell id="33ecqLk9YDmXbCicqXYl-41" value="" style="rounded=0;whiteSpace=wrap;html=1;dashed=1;strokeColor=#1E8900;strokeWidth=1;fillColor=none;" vertex="1" parent="1">
          <mxGeometry x="90" y="290" width="510" height="615" as="geometry" />
        </mxCell>
        <mxCell id="33ecqLk9YDmXbCicqXYl-42" value="Availability Zone 1c" style="text;html=1;strokeColor=none;fillColor=none;align=center;verticalAlign=middle;whiteSpace=wrap;rounded=0;fontSize=12;" vertex="1" parent="1">
          <mxGeometry x="610" y="300" width="490" height="30" as="geometry" />
        </mxCell>
        <mxCell id="33ecqLk9YDmXbCicqXYl-43" value="" style="rounded=0;whiteSpace=wrap;html=1;dashed=1;strokeColor=#1E8900;strokeWidth=1;fillColor=none;" vertex="1" parent="1">
          <mxGeometry x="600" y="290" width="510" height="615" as="geometry" />
        </mxCell>
        <mxCell id="33ecqLk9YDmXbCicqXYl-44" value="Internet gateway" style="shape=mxgraph.aws4.resourceIcon;resIcon=mxgraph.aws4.internet_gateway;html=1;verticalLabelPosition=bottom;verticalAlign=top;align=center;aspect=fixed;pointerEvents=1;fontSize=12;" vertex="1" parent="1">
          <mxGeometry x="561" y="370" width="78" height="78" as="geometry" />
        </mxCell>
        <mxCell id="33ecqLk9YDmXbCicqXYl-45" value="Public subnet 1a" style="shape=mxgraph.aws4.group;grIcon=mxgraph.aws4.subnet_public;html=1;verticalAlign=top;align=left;spacingLeft=30;fillColor=#E9F3E6;strokeColor=#94B585;fontSize=12;" vertex="1" parent="1">
          <mxGeometry x="140" y="440" width="400" height="150" as="geometry" />
        </mxCell>
        <mxCell id="33ecqLk9YDmXbCicqXYl-46" value="Public subnet 1c" style="shape=mxgraph.aws4.group;grIcon=mxgraph.aws4.subnet_public;html=1;verticalAlign=top;align=left;spacingLeft=30;fillColor=#E9F3E6;strokeColor=#94B585;fontSize=12;" vertex="1" parent="1">
          <mxGeometry x="660" y="440" width="400" height="150" as="geometry" />
        </mxCell>
        <mxCell id="33ecqLk9YDmXbCicqXYl-47" value="Private subnet 1a" style="shape=mxgraph.aws4.group;grIcon=mxgraph.aws4.subnet_private;html=1;verticalAlign=top;align=left;spacingLeft=30;fillColor=#E6F3F8;strokeColor=#7AAECB;fontSize=12;" vertex="1" parent="1">
          <mxGeometry x="140" y="610" width="400" height="281" as="geometry" />
        </mxCell>
        <mxCell id="33ecqLk9YDmXbCicqXYl-48" value="Amazon&#xa;Aurora" style="sketch=0;outlineConnect=0;fontColor=#232F3E;gradientColor=none;strokeColor=#ffffff;fillColor=#232F3E;dashed=0;verticalLabelPosition=middle;verticalAlign=bottom;align=center;html=1;whiteSpace=wrap;fontSize=10;fontStyle=1;spacing=3;shape=mxgraph.aws4.productIcon;prIcon=mxgraph.aws4.aurora;" vertex="1" parent="33ecqLk9YDmXbCicqXYl-47">
          <mxGeometry x="163" y="160" width="80" height="110" as="geometry" />
        </mxCell>
        <mxCell id="33ecqLk9YDmXbCicqXYl-49" value="Amazon EC2" style="outlineConnect=0;fontColor=#232F3E;gradientColor=none;strokeColor=#ffffff;fillColor=#232F3E;dashed=0;verticalLabelPosition=middle;verticalAlign=bottom;align=center;html=1;whiteSpace=wrap;fontSize=10;fontStyle=1;spacing=3;shape=mxgraph.aws4.productIcon;prIcon=mxgraph.aws4.ec2;shadow=0;" vertex="1" parent="33ecqLk9YDmXbCicqXYl-47">
          <mxGeometry x="161" y="40" width="80" height="100" as="geometry" />
        </mxCell>
        <mxCell id="33ecqLk9YDmXbCicqXYl-50" value="Private subnet 1c" style="shape=mxgraph.aws4.group;grIcon=mxgraph.aws4.subnet_private;html=1;verticalAlign=top;align=left;spacingLeft=30;fillColor=#E6F3F8;strokeColor=#7AAECB;fontSize=12;" vertex="1" parent="1">
          <mxGeometry x="660" y="610" width="400" height="280" as="geometry" />
        </mxCell>
        <mxCell id="33ecqLk9YDmXbCicqXYl-51" value="Amazon&#xa;Aurora" style="sketch=0;outlineConnect=0;fontColor=#232F3E;gradientColor=none;strokeColor=#ffffff;fillColor=#232F3E;dashed=0;verticalLabelPosition=middle;verticalAlign=bottom;align=center;html=1;whiteSpace=wrap;fontSize=10;fontStyle=1;spacing=3;shape=mxgraph.aws4.productIcon;prIcon=mxgraph.aws4.aurora;" vertex="1" parent="33ecqLk9YDmXbCicqXYl-50">
          <mxGeometry x="161" y="160" width="80" height="110" as="geometry" />
        </mxCell>
        <mxCell id="33ecqLk9YDmXbCicqXYl-52" value="Amazon EC2" style="sketch=0;outlineConnect=0;fontColor=#232F3E;gradientColor=none;strokeColor=#ffffff;fillColor=#232F3E;dashed=0;verticalLabelPosition=middle;verticalAlign=bottom;align=center;html=1;whiteSpace=wrap;fontSize=10;fontStyle=1;spacing=3;shape=mxgraph.aws4.productIcon;prIcon=mxgraph.aws4.ec2;" vertex="1" parent="33ecqLk9YDmXbCicqXYl-50">
          <mxGeometry x="160" y="40" width="80" height="100" as="geometry" />
        </mxCell>
        <mxCell id="33ecqLk9YDmXbCicqXYl-53" style="edgeStyle=orthogonalEdgeStyle;rounded=0;orthogonalLoop=1;jettySize=auto;html=1;entryX=0.5;entryY=0;entryDx=0;entryDy=0;" edge="1" parent="1" source="33ecqLk9YDmXbCicqXYl-71">
          <mxGeometry relative="1" as="geometry">
            <mxPoint x="560" y="30" as="sourcePoint" />
            <mxPoint x="418.9999999999998" y="150" as="targetPoint" />
          </mxGeometry>
        </mxCell>
        <mxCell id="33ecqLk9YDmXbCicqXYl-54" style="edgeStyle=orthogonalEdgeStyle;rounded=0;orthogonalLoop=1;jettySize=auto;html=1;entryX=0.5;entryY=0;entryDx=0;entryDy=0;" edge="1" parent="1">
          <mxGeometry relative="1" as="geometry">
            <mxPoint x="599.9999999999998" y="60" as="sourcePoint" />
            <mxPoint x="599.9999999999998" y="150" as="targetPoint" />
          </mxGeometry>
        </mxCell>
        <mxCell id="33ecqLk9YDmXbCicqXYl-55" style="edgeStyle=orthogonalEdgeStyle;rounded=0;orthogonalLoop=1;jettySize=auto;html=1;entryX=0.5;entryY=0;entryDx=0;entryDy=0;" edge="1" parent="1" target="33ecqLk9YDmXbCicqXYl-44">
          <mxGeometry relative="1" as="geometry">
            <mxPoint x="599.9999999999998" y="228.0000000000001" as="sourcePoint" />
          </mxGeometry>
        </mxCell>
        <mxCell id="33ecqLk9YDmXbCicqXYl-56" style="edgeStyle=orthogonalEdgeStyle;rounded=0;orthogonalLoop=1;jettySize=auto;html=1;entryX=0.5;entryY=0;entryDx=0;entryDy=0;" edge="1" parent="1" source="33ecqLk9YDmXbCicqXYl-44">
          <mxGeometry relative="1" as="geometry">
            <mxPoint x="599.9999999999998" y="490" as="targetPoint" />
          </mxGeometry>
        </mxCell>
        <mxCell id="33ecqLk9YDmXbCicqXYl-57" style="edgeStyle=orthogonalEdgeStyle;rounded=0;orthogonalLoop=1;jettySize=auto;html=1;entryX=0.5;entryY=1;entryDx=0;entryDy=0;exitX=0;exitY=0.5;exitDx=0;exitDy=0;" edge="1" parent="1" target="33ecqLk9YDmXbCicqXYl-45">
          <mxGeometry relative="1" as="geometry">
            <mxPoint x="440" y="529" as="targetPoint" />
            <mxPoint x="561" y="529" as="sourcePoint" />
          </mxGeometry>
        </mxCell>
        <mxCell id="33ecqLk9YDmXbCicqXYl-58" style="edgeStyle=orthogonalEdgeStyle;rounded=0;orthogonalLoop=1;jettySize=auto;html=1;entryX=0.5;entryY=1;entryDx=0;entryDy=0;exitX=1;exitY=0.5;exitDx=0;exitDy=0;" edge="1" parent="1" target="33ecqLk9YDmXbCicqXYl-46">
          <mxGeometry relative="1" as="geometry">
            <mxPoint x="760" y="529" as="targetPoint" />
            <mxPoint x="639" y="529" as="sourcePoint" />
          </mxGeometry>
        </mxCell>
        <mxCell id="33ecqLk9YDmXbCicqXYl-59" style="edgeStyle=orthogonalEdgeStyle;rounded=0;orthogonalLoop=1;jettySize=auto;html=1;entryX=0.5;entryY=0;entryDx=0;entryDy=0;" edge="1" parent="1">
          <mxGeometry relative="1" as="geometry">
            <mxPoint x="561" y="529" as="sourcePoint" />
            <mxPoint x="339.9999999999998" y="650" as="targetPoint" />
            <Array as="points">
              <mxPoint x="340" y="529" />
              <mxPoint x="340" y="650" />
            </Array>
          </mxGeometry>
        </mxCell>
        <mxCell id="33ecqLk9YDmXbCicqXYl-60" style="edgeStyle=orthogonalEdgeStyle;rounded=0;orthogonalLoop=1;jettySize=auto;html=1;entryX=0.5;entryY=0;entryDx=0;entryDy=0;" edge="1" parent="1">
          <mxGeometry relative="1" as="geometry">
            <mxPoint x="639" y="529" as="sourcePoint" />
            <mxPoint x="860" y="650" as="targetPoint" />
            <Array as="points">
              <mxPoint x="860" y="529" />
              <mxPoint x="860" y="650" />
            </Array>
          </mxGeometry>
        </mxCell>
        <mxCell id="33ecqLk9YDmXbCicqXYl-61" style="edgeStyle=orthogonalEdgeStyle;rounded=0;orthogonalLoop=1;jettySize=auto;html=1;entryX=0.5;entryY=0;entryDx=0;entryDy=0;" edge="1" parent="1">
          <mxGeometry relative="1" as="geometry">
            <mxPoint x="339.9999999999998" y="728" as="sourcePoint" />
            <mxPoint x="339.9999999999998" y="770" as="targetPoint" />
          </mxGeometry>
        </mxCell>
        <mxCell id="33ecqLk9YDmXbCicqXYl-62" style="edgeStyle=orthogonalEdgeStyle;rounded=0;orthogonalLoop=1;jettySize=auto;html=1;entryX=0.5;entryY=0;entryDx=0;entryDy=0;" edge="1" parent="1">
          <mxGeometry relative="1" as="geometry">
            <mxPoint x="860" y="728" as="sourcePoint" />
            <mxPoint x="860" y="770" as="targetPoint" />
          </mxGeometry>
        </mxCell>
        <mxCell id="33ecqLk9YDmXbCicqXYl-63" value="&lt;font style=&quot;font-size: 28px; color: rgb(0, 0, 0);&quot;&gt;&lt;b&gt;コスト最適化のため、不使用&lt;/b&gt;&lt;/font&gt;" style="rounded=1;whiteSpace=wrap;html=1;fillColor=#999999;noLabel=0;labelBackgroundColor=none;labelBorderColor=default;textOpacity=50;fillStyle=auto;gradientColor=none;opacity=50;" vertex="1" parent="1">
          <mxGeometry x="650" y="295" width="480" height="630" as="geometry" />
        </mxCell>
        <mxCell id="33ecqLk9YDmXbCicqXYl-64" style="rounded=0;orthogonalLoop=1;jettySize=auto;html=1;" edge="1" parent="1">
          <mxGeometry relative="1" as="geometry">
            <mxPoint x="630" y="188.23000000000002" as="sourcePoint" />
            <mxPoint x="880.44" y="188.23000000000002" as="targetPoint" />
          </mxGeometry>
        </mxCell>
        <mxCell id="33ecqLk9YDmXbCicqXYl-65" value="&lt;div&gt;&lt;br&gt;&lt;/div&gt;WAF" style="sketch=0;outlineConnect=0;fontColor=#232F3E;gradientColor=none;strokeColor=#ffffff;fillColor=#232F3E;dashed=0;verticalLabelPosition=middle;verticalAlign=bottom;align=center;html=1;whiteSpace=wrap;fontSize=10;fontStyle=1;spacing=3;shape=mxgraph.aws4.productIcon;prIcon=mxgraph.aws4.waf;" vertex="1" parent="1">
          <mxGeometry x="268" y="150" width="80" height="100" as="geometry" />
        </mxCell>
        <mxCell id="33ecqLk9YDmXbCicqXYl-66" value="KMS" style="sketch=0;outlineConnect=0;fontColor=#232F3E;gradientColor=none;strokeColor=#ffffff;fillColor=#232F3E;dashed=0;verticalLabelPosition=middle;verticalAlign=bottom;align=center;html=1;whiteSpace=wrap;fontSize=10;fontStyle=1;spacing=3;shape=mxgraph.aws4.productIcon;prIcon=mxgraph.aws4.key_management_service;" vertex="1" parent="1">
          <mxGeometry x="161" y="150" width="80" height="100" as="geometry" />
        </mxCell>
        <mxCell id="33ecqLk9YDmXbCicqXYl-67" value="Route 53" style="sketch=0;outlineConnect=0;fontColor=#232F3E;gradientColor=none;strokeColor=#ffffff;fillColor=#232F3E;dashed=0;verticalLabelPosition=middle;verticalAlign=bottom;align=center;html=1;whiteSpace=wrap;fontSize=10;fontStyle=1;spacing=3;shape=mxgraph.aws4.productIcon;prIcon=mxgraph.aws4.route_53;" vertex="1" parent="1">
          <mxGeometry x="381" y="150" width="80" height="100" as="geometry" />
        </mxCell>
        <mxCell id="33ecqLk9YDmXbCicqXYl-68" value="&lt;div&gt;&lt;br&gt;&lt;/div&gt;&amp;nbsp;Cloudfront" style="sketch=0;outlineConnect=0;fontColor=#232F3E;gradientColor=none;strokeColor=#ffffff;fillColor=#232F3E;dashed=0;verticalLabelPosition=middle;verticalAlign=bottom;align=center;html=1;whiteSpace=wrap;fontSize=10;fontStyle=1;spacing=3;shape=mxgraph.aws4.productIcon;prIcon=mxgraph.aws4.cloudfront;" vertex="1" parent="1">
          <mxGeometry x="561" y="150" width="80" height="100" as="geometry" />
        </mxCell>
        <mxCell id="33ecqLk9YDmXbCicqXYl-69" value="Amazon S3" style="sketch=0;outlineConnect=0;fontColor=#232F3E;gradientColor=none;strokeColor=#ffffff;fillColor=#232F3E;dashed=0;verticalLabelPosition=middle;verticalAlign=bottom;align=center;html=1;whiteSpace=wrap;fontSize=10;fontStyle=1;spacing=3;shape=mxgraph.aws4.productIcon;prIcon=mxgraph.aws4.s3;" vertex="1" parent="1">
          <mxGeometry x="880" y="150" width="80" height="100" as="geometry" />
        </mxCell>
        <mxCell id="33ecqLk9YDmXbCicqXYl-70" value="ALB" style="sketch=0;outlineConnect=0;fontColor=#232F3E;gradientColor=none;strokeColor=#ffffff;fillColor=#232F3E;dashed=0;verticalLabelPosition=middle;verticalAlign=bottom;align=center;html=1;whiteSpace=wrap;fontSize=10;fontStyle=1;spacing=3;shape=mxgraph.aws4.productIcon;prIcon=mxgraph.aws4.application_load_balancer;" vertex="1" parent="1">
          <mxGeometry x="560" y="490" width="80" height="100" as="geometry" />
        </mxCell>
        <mxCell id="33ecqLk9YDmXbCicqXYl-71" value="" style="sketch=0;outlineConnect=0;fontColor=#232F3E;gradientColor=none;fillColor=#232F3D;strokeColor=none;dashed=0;verticalLabelPosition=bottom;verticalAlign=top;align=center;html=1;fontSize=12;fontStyle=0;aspect=fixed;pointerEvents=1;shape=mxgraph.aws4.user;" vertex="1" parent="1">
          <mxGeometry x="574" width="50" height="50" as="geometry" />
        </mxCell>
        <mxCell id="33ecqLk9YDmXbCicqXYl-72" value="&lt;div&gt;&lt;br&gt;&lt;/div&gt;&amp;nbsp;CloudWatch" style="sketch=0;outlineConnect=0;fontColor=#232F3E;gradientColor=none;strokeColor=#ffffff;fillColor=#232F3E;dashed=0;verticalLabelPosition=middle;verticalAlign=bottom;align=center;html=1;whiteSpace=wrap;fontSize=10;fontStyle=1;spacing=3;shape=mxgraph.aws4.productIcon;prIcon=mxgraph.aws4.cloudwatch;" vertex="1" parent="1">
          <mxGeometry x="59" y="150" width="80" height="99" as="geometry" />
        </mxCell>
      </root>
    </mxGraphModel>
  </diagram>
</mxfile>
